<?xml version="1.0" encoding="utf-8"?>
<svg fill="#000000" width="800px" height="800px" viewBox="0 0 32 32" version="1.1" xmlns="http://www.w3.org/2000/svg">
  <title>game</title>
  <path d="M 9.267 8.172 L 9.267 5.922 L 11.517 5.922 L 11.517 8.172 L 9.267 8.172 Z M 20.486 5.922 L 22.705 5.922 L 22.705 8.172 L 20.486 8.172 L 20.486 5.922 L 20.486 5.922 Z M 24.954 12.641 L 24.954 8.172 L 27.204 8.172 L 27.204 17.141 L 24.954 17.141 L 24.954 19.36 L 22.704 19.36 L 22.704 21.61 L 24.954 21.61 L 24.954 23.86 L 27.204 23.86 L 27.204 26.079 L 22.704 26.079 L 22.704 23.86 L 20.485 23.86 L 20.485 21.61 L 11.516 21.61 L 11.516 23.86 L 9.266 23.86 L 9.266 26.079 L 4.797 26.079 L 4.797 23.86 L 7.047 23.86 L 7.047 21.61 L 9.266 21.61 L 9.266 19.36 L 7.047 19.36 L 7.047 17.141 L 4.797 17.141 L 4.797 8.172 L 7.047 8.172 L 7.047 12.641 L 9.266 12.641 L 9.266 10.422 L 11.516 10.422 L 11.516 8.172 L 13.766 8.172 L 13.766 10.422 L 18.235 10.422 L 18.235 8.172 L 20.485 8.172 L 20.485 10.422 L 22.704 10.422 L 22.704 12.641 L 24.954 12.641 L 24.954 12.641 Z M 13.767 14.891 L 13.767 12.641 L 11.517 12.641 L 11.517 14.891 L 13.767 14.891 Z M 20.486 14.891 L 20.486 12.641 L 18.236 12.641 L 18.236 14.891 L 20.486 14.891 Z"/>
</svg>